<mxfile host="app.diagrams.net" modified="2023-10-12T07:25:33.168Z" agent="Mozilla/5.0 (Windows NT 10.0; Win64; x64) AppleWebKit/537.36 (KHTML, like Gecko) Chrome/117.0.0.0 Safari/537.36 Edg/117.0.2045.43" version="22.0.4" etag="7Jd-Y5Y6L6NtxGixTk9w" type="github">
  <diagram name="第 1 页" id="jjncR9E_ehAz1F7srOPH">
    <mxGraphModel>
      <root>
        <mxCell id="0" />
        <mxCell id="1" parent="0" />
      </root>
    </mxGraphModel>
  </diagram>
</mxfile>
